<svg xmlns="http://www.w3.org/2000/svg" width="16" height="16" viewBox="0 0 16 16">
  <g id="list_alt_black_24dp" transform="translate(-3 -3)">
    <path id="Path_2904" data-name="Path 2904" d="M17.222,4.778V17.222H4.778V4.778H17.222M18.2,3H3.8a.8.8,0,0,0-.8.8V18.2a.859.859,0,0,0,.8.8H18.2a.943.943,0,0,0,.8-.8V3.8A.859.859,0,0,0,18.2,3ZM10.111,6.556h5.333V8.333H10.111Zm0,3.556h5.333v1.778H10.111Zm0,3.556h5.333v1.778H10.111ZM6.556,6.556H8.333V8.333H6.556Zm0,3.556H8.333v1.778H6.556Zm0,3.556H8.333v1.778H6.556Z" fill="#888"/>
  </g>
</svg>
