<svg id="event-24px" xmlns="http://www.w3.org/2000/svg" width="20" height="20" viewBox="0 0 20 20">
  <path id="Path_2664" data-name="Path 2664" d="M0,0H20V20H0Z" fill="none"/>
  <path id="Path_2665" data-name="Path 2665" d="M14.861,10.258H10.625v4.208h4.236ZM14.014,1V2.683H7.236V1H5.542V2.683H4.694A1.681,1.681,0,0,0,3.008,4.367L3,16.15a1.688,1.688,0,0,0,1.694,1.683H16.556A1.694,1.694,0,0,0,18.25,16.15V4.367a1.694,1.694,0,0,0-1.694-1.683h-.847V1Zm2.542,15.15H4.694V6.892H16.556Z" transform="translate(-0.625 -0.208)" fill="#12355f"/>
</svg>
