<svg xmlns="http://www.w3.org/2000/svg" width="12.706" height="18" viewBox="0 0 12.706 18">
  <g id="lock_black_24dp" transform="translate(-4 -1)">
    <path id="Path_2939" data-name="Path 2939" d="M15.118,7h-.794V5.286A4.139,4.139,0,0,0,10.353,1,4.139,4.139,0,0,0,6.382,5.286V7H5.588A1.66,1.66,0,0,0,4,8.714v8.571A1.66,1.66,0,0,0,5.588,19h9.529a1.66,1.66,0,0,0,1.588-1.714V8.714A1.66,1.66,0,0,0,15.118,7Zm-4.765,7.714a1.719,1.719,0,0,1,0-3.429,1.719,1.719,0,0,1,0,3.429ZM12.815,7H7.891V5.286a2.567,2.567,0,0,1,2.462-2.657,2.567,2.567,0,0,1,2.462,2.657Z" fill="#f48a21"/>
  </g>
</svg>
