<svg id="menu" xmlns="http://www.w3.org/2000/svg" width="4.5" height="18" viewBox="0 0 4.5 18">
  <path id="Path_2850" data-name="Path 2850" d="M197.175.665a2.288,2.288,0,0,1,0,3.213,2.235,2.235,0,0,1-3.182,0,2.288,2.288,0,0,1,0-3.213,2.235,2.235,0,0,1,3.182,0" transform="translate(-193.334 0)" fill="#12355f"/>
  <path id="Path_2851" data-name="Path 2851" d="M197.175,194a2.288,2.288,0,0,1,0,3.213,2.235,2.235,0,0,1-3.182,0,2.288,2.288,0,0,1,0-3.213,2.235,2.235,0,0,1,3.182,0" transform="translate(-193.334 -186.606)" fill="#12355f"/>
  <path id="Path_2852" data-name="Path 2852" d="M197.175,387.331a2.288,2.288,0,0,1,0,3.213,2.235,2.235,0,0,1-3.182,0,2.288,2.288,0,0,1,0-3.213,2.235,2.235,0,0,1,3.182,0" transform="translate(-193.334 -373.21)" fill="#12355f"/>
</svg>
