<svg xmlns="http://www.w3.org/2000/svg" xmlns:xlink="http://www.w3.org/1999/xlink" width="143" height="143" viewBox="0 0 143 143">
  <defs>
    <filter id="Ellipse_2660" x="0" y="0" width="143" height="143" filterUnits="userSpaceOnUse">
      <feOffset dy="3" input="SourceAlpha"/>
      <feGaussianBlur stdDeviation="3" result="blur"/>
      <feFlood flood-opacity="0.161"/>
      <feComposite operator="in" in2="blur"/>
      <feComposite in="SourceGraphic"/>
    </filter>
  </defs>
  <g id="profile_pic" data-name="profile pic" transform="translate(-116 -111)">
    <g transform="matrix(1, 0, 0, 1, 116, 111)" filter="url(#Ellipse_2660)">
      <circle id="Ellipse_2660-2" data-name="Ellipse 2660" cx="62.5" cy="62.5" r="62.5" transform="translate(9 6)" fill="#ccc" opacity="0.8"/>
    </g>
    <g id="user-profile" transform="translate(161 149.992)">
      <path id="Path_2411" data-name="Path 2411" d="M99.711,29.216a14.509,14.509,0,0,1-14.379-14.6,14.381,14.381,0,1,1,28.758,0A14.509,14.509,0,0,1,99.711,29.216Zm0-24.827a10.224,10.224,0,1,0,10.065,10.223A10.156,10.156,0,0,0,99.711,4.389Zm0,0" transform="translate(-73.916 0)" fill="#888"/>
      <path id="Path_2412" data-name="Path 2412" d="M49.952,282.3H2.172A2.182,2.182,0,0,1,0,280.105V269.882a13.831,13.831,0,0,1,13.755-13.874H38.369a13.831,13.831,0,0,1,13.755,13.874v10.223A2.182,2.182,0,0,1,49.952,282.3ZM4.344,277.914H47.78v-8.032a9.463,9.463,0,0,0-9.411-9.493H13.755a9.463,9.463,0,0,0-9.411,9.493Zm0,0" transform="translate(0 -222.288)" fill="#888"/>
    </g>
  </g>
</svg>
