<svg xmlns="http://www.w3.org/2000/svg" width="11.717" height="18" viewBox="0 0 11.717 18">
  <path id="rupee" d="M224.776,66.464a4.376,4.376,0,0,0-.829-1.839h3.361a5.381,5.381,0,0,0,.1-1.072,5.3,5.3,0,0,0-.1-1.053H215.8c-.019.107-.035.214-.047.323l0,.027a7.678,7.678,0,0,0-.053.9,7.531,7.531,0,0,0,.1,1.269h2.242q2.743,0,3.481,1.444H215.8a5.46,5.46,0,0,0-.1,1.053,5.39,5.39,0,0,0,.1,1.07h4.41v0h1.5a2.516,2.516,0,0,1-1.333,1.6,5.942,5.942,0,0,1-2.759.551h-1.456a.407.407,0,0,0-.294.121.386.386,0,0,0-.121.288v1.623a.371.371,0,0,0,.117.282q2.493,2.6,6.468,7.3a.382.382,0,0,0,.323.154h2.534a.381.381,0,0,0,.376-.23.348.348,0,0,0-.051-.436q-3.789-4.576-5.96-6.852a6.673,6.673,0,0,0,3.586-1.4,4.772,4.772,0,0,0,1.677-2.991h2.5a5.532,5.532,0,0,0,.1-1.07,5.3,5.3,0,0,0-.1-1.053Z" transform="translate(-215.7 -62.5)" fill="#12355f"/>
</svg>
