<svg xmlns="http://www.w3.org/2000/svg" width="17.605" height="15.844" viewBox="0 0 17.605 15.844">
  <g id="business_black_24dp" transform="translate(-2 -3)">
    <path id="Path_2908" data-name="Path 2908" d="M10.8,6.521V3H2V18.844H19.6V6.521ZM5.521,17.084H3.76v-1.76h1.76Zm0-3.521H3.76V11.8h1.76Zm0-3.521H3.76V8.281h1.76Zm0-3.521H3.76V4.76h1.76ZM9.042,17.084H7.281v-1.76h1.76Zm0-3.521H7.281V11.8h1.76Zm0-3.521H7.281V8.281h1.76Zm0-3.521H7.281V4.76h1.76Zm8.8,10.563H10.8v-1.76h1.76v-1.76H10.8V11.8h1.76v-1.76H10.8V8.281h7.042Zm-1.76-7.042h-1.76V11.8h1.76Zm0,3.521h-1.76v1.76h1.76Z" transform="translate(0 0)" fill="#888"/>
  </g>
</svg>
