<svg xmlns="http://www.w3.org/2000/svg" width="16" height="16" viewBox="0 0 16 16">
  <g id="groups_black_24dp" transform="translate(0 0.114)">
    <rect id="Rectangle_1666" data-name="Rectangle 1666" width="16" height="16" transform="translate(0 -0.114)" fill="none"/>
    <g id="Group_10384" data-name="Group 10384" transform="translate(0 3.912)">
      <path id="Path_2892" data-name="Path 2892" d="M7.9,10.445a6.987,6.987,0,0,1,2.792.593,1.965,1.965,0,0,1,1.159,1.8V13.9h-7.9v-1.06a1.951,1.951,0,0,1,1.159-1.8A6.875,6.875,0,0,1,7.9,10.445Zm-5.268.165A1.317,1.317,0,1,0,1.317,9.293,1.321,1.321,0,0,0,2.634,10.61Zm.744.724a4.6,4.6,0,0,0-.744-.066A4.577,4.577,0,0,0,.8,11.65,1.324,1.324,0,0,0,0,12.868V13.9H2.963v-1.06A2.962,2.962,0,0,1,3.378,11.334Zm9.792-.724a1.317,1.317,0,1,0-1.317-1.317A1.321,1.321,0,0,0,13.17,10.61ZM15.8,12.868A1.324,1.324,0,0,0,15,11.65a4.477,4.477,0,0,0-2.575-.316,2.962,2.962,0,0,1,.415,1.508V13.9H15.8ZM7.9,6A1.976,1.976,0,1,1,5.927,7.976,1.973,1.973,0,0,1,7.9,6Z" transform="translate(0 -6)" fill="#888"/>
    </g>
  </g>
</svg>
