<svg xmlns="http://www.w3.org/2000/svg" width="16" height="15.158" viewBox="0 0 16 15.158">
  <g id="account_balance_wallet_black_24dp" transform="translate(-3 -3)">
    <path id="Path_2900" data-name="Path 2900" d="M18.158,15.632v.842a1.689,1.689,0,0,1-1.684,1.684H4.684A1.684,1.684,0,0,1,3,16.474V4.684A1.684,1.684,0,0,1,4.684,3H16.474a1.689,1.689,0,0,1,1.684,1.684v.842H10.579A1.684,1.684,0,0,0,8.895,7.211v6.737a1.684,1.684,0,0,0,1.684,1.684Zm-7.579-1.684H19V7.211H10.579Zm3.368-2.105a1.263,1.263,0,1,1,1.263-1.263A1.261,1.261,0,0,1,13.947,11.842Z" fill="#12355f"/>
  </g>
</svg>
